<svg xmlns="http://www.w3.org/2000/svg" viewBox="0 0 42.82 42.82"><defs><style>.a{fill:none;stroke:#78bb6a;stroke-miterlimit:10;}.b{fill:#78bb6a;}</style></defs><circle class="a" cx="21.41" cy="21.41" r="20.91"/><path class="b" d="M17.42,21.91h4a.51.51,0,0,0,.5-.5.5.5,0,0,0-.5-.5h-4a.5.5,0,0,0-.5.5A.5.5,0,0,0,17.42,21.91Z"/><path class="b" d="M18.39,21a5,5,0,1,0-5-5h0a5,5,0,0,0,5,5Zm-1.74-3c0-.16.09-.33.14-.49s.11-.21.28-.12a2.89,2.89,0,0,0,.95.28,1.15,1.15,0,0,0,.61-.08.49.49,0,0,0,.12-.85,1.51,1.51,0,0,0-.35-.2c-.32-.15-.66-.25-1-.43a1.39,1.39,0,0,1-.77-1.31,1.44,1.44,0,0,1,1.05-1.33c.26-.09.26-.09.26-.36v-.27c0-.21,0-.24.24-.25h.19c.43,0,.43,0,.43.43s0,.31.3.36a2.57,2.57,0,0,1,.67.19.21.21,0,0,1,.13.27c-.05.18-.1.37-.17.55s-.11.2-.27.12a2.17,2.17,0,0,0-1.06-.21.72.72,0,0,0-.29.06A.4.4,0,0,0,18,15a2.09,2.09,0,0,0,.46.26,8,8,0,0,1,.84.38,1.5,1.5,0,0,1,.49,2.28,1.62,1.62,0,0,1-.84.54c-.14,0-.21.11-.2.26s0,.3,0,.45a.18.18,0,0,1-.2.2h-.48c-.14,0-.2-.08-.2-.22s0-.21,0-.32,0-.25-.24-.29a2.84,2.84,0,0,1-.85-.24c-.2-.09-.22-.15-.16-.37Z"/><path class="b" d="M29.62,21.4H29a6.53,6.53,0,0,0-2.14-3,.5.5,0,0,0,0-.12,2.37,2.37,0,0,1,.35-1.9.46.46,0,0,0-.15-.65.42.42,0,0,0-.31-.07,3.53,3.53,0,0,0-1.92.8,1.93,1.93,0,0,0-.59,1,6,6,0,0,1-9.52,3.37,6,6,0,0,0-.54,2.47,5.78,5.78,0,0,0,.17,1.37h0v0a5.7,5.7,0,0,0,.5,1.32,6.91,6.91,0,0,0,1.27,1.93,3.67,3.67,0,0,1,1,2.35v.23h0a.43.43,0,0,0,.43.4h2.61a.44.44,0,0,0,.44-.43v-.65a8.92,8.92,0,0,0,1.16.08c.3,0,.61,0,.91-.05v.62a.43.43,0,0,0,.43.43h2.63a.43.43,0,0,0,.43-.43v-.65a2.57,2.57,0,0,1,.89-1.8l.09-.08,0,0h0A6.44,6.44,0,0,0,29.08,25h.55a.79.79,0,0,0,.79-.8v-2A.8.8,0,0,0,29.62,21.4Zm-3.28.14a.65.65,0,1,1,.65-.65h0a.65.65,0,0,1-.64.65Z"/></svg>