<svg xmlns="http://www.w3.org/2000/svg" viewBox="0 0 46.56 46.56"><defs><style>.a{fill:none;stroke:#78bb6a;stroke-miterlimit:10;}.b{fill:#78bb6a;}</style></defs><circle class="a" cx="23.28" cy="23.28" r="22.78"/><path class="b" d="M33.05,18.36H28.83v-.65h4.22Zm0,.43H28.83v.65h4.22Zm0-3H28.83v1.43h4.22Zm1.34-1.54V29.67a.42.42,0,0,1-.42.42H27.9a.41.41,0,0,1-.41-.42V14.29a.41.41,0,0,1,.41-.42H34A.41.41,0,0,1,34.39,14.29Zm-.84.41H28.32V29.25h5.23Zm-.5,5.16H28.83v.65h4.22Zm-.69,4.86a1.36,1.36,0,0,1-2.71,0,1.36,1.36,0,1,1,2.71,0Zm-.49,0a.87.87,0,1,0-.86.86A.86.86,0,0,0,31.87,24.72Zm-5.54-7.9v8.72a.94.94,0,0,1-.94.95H20.68s-.27,1.91,1.43,1.91v1H16.39v-1c1.64,0,1.43-1.91,1.43-1.91H13.11a1,1,0,0,1-.95-.95V16.82a1,1,0,0,1,.95-1H25.39A.94.94,0,0,1,26.33,16.82Zm-6.2,8.51a.82.82,0,0,0-.82-.82.82.82,0,0,0-.81.82.81.81,0,0,0,.81.81A.82.82,0,0,0,20.13,25.33Zm5.19-8.45H13.18v7.35H25.32Zm-6,7.94a.5.5,0,0,0-.51.5.51.51,0,0,0,1,0A.5.5,0,0,0,19.32,24.82Z"/></svg>