<svg xmlns="http://www.w3.org/2000/svg" viewBox="0 0 50.02 50.02"><defs><style>.a{fill:#78bb6a;}.b{fill:none;stroke:#78bb6a;stroke-miterlimit:10;}</style></defs><path class="a" d="M28.57,19.75a4.15,4.15,0,0,0-5.85,0,4.19,4.19,0,0,0-1.1,2s0,.05,0,.08a4.14,4.14,0,1,0,7-2.07Zm-5.9,1.67a3.3,3.3,0,0,1,.7-1,3.22,3.22,0,0,1,5.45,2.84H25.29V21.88a.46.46,0,0,0-.45-.46Zm.7,3.53a3.19,3.19,0,0,1-.93-2.62h1.95v1.35a.45.45,0,0,0,.45.45h3.68a3,3,0,0,1-.59.82A3.22,3.22,0,0,1,23.37,25Z"/><path class="a" d="M30.81,27.39A13.43,13.43,0,0,0,34,14.65a.43.43,0,0,0-.32-.32,13.47,13.47,0,0,0-7,0,13.67,13.67,0,0,0-5.76,3.2,4.34,4.34,0,0,0-4.7,1L14,20.74a.46.46,0,0,0,0,.65l4.72,4.72a5.7,5.7,0,0,0-1.39,3.76v.71a.44.44,0,0,0,.45.45h.71a5.7,5.7,0,0,0,3.76-1.39l1,1L21.55,32.3a.45.45,0,0,0,.64.64l1.66-1.65,3.08,3.08a.46.46,0,0,0,.65,0l2.27-2.27A4.36,4.36,0,0,0,30.81,27.39Zm2.37-12.25A12.58,12.58,0,0,1,33.41,20L28.3,14.91A12.58,12.58,0,0,1,33.18,15.14ZM14.91,21.07l1.95-1.95a3.46,3.46,0,0,1,3.34-.9L16.46,22a1.35,1.35,0,0,0-.27.37Zm3.55,9.06h-.27v-.27a4.8,4.8,0,0,1,1.13-3.11L21.57,29A4.8,4.8,0,0,1,18.46,30.13Zm7.25,1.09a.45.45,0,0,1-.64,0l-8-8a.45.45,0,0,1,0-.64l4.16-4.16a12.59,12.59,0,0,1,4-2.69l1.45,1.46a.46.46,0,0,0,.65-.65l-1.17-1.16c.34-.11.68-.21,1-.29l6,6a12.49,12.49,0,0,1-3.33,6Zm1.54,2.19L26,32.13a1.35,1.35,0,0,0,.37-.27l3.75-3.74a3.46,3.46,0,0,1-.9,3.34Z"/><path class="a" d="M28.66,18.06a.43.43,0,0,0-.14-.32.46.46,0,0,0-.32-.13.48.48,0,0,0-.32.13.46.46,0,0,0,0,.64.45.45,0,0,0,.32.14.48.48,0,0,0,.46-.46Z"/><path class="a" d="M16.5,25.65a.48.48,0,0,0-.65,0l-1,1a.46.46,0,1,0,.65.65l1-1A.48.48,0,0,0,16.5,25.65Z"/><path class="a" d="M21.28,33.66a.44.44,0,0,0-.45-.45.46.46,0,0,0-.32.13.45.45,0,0,0-.14.32.48.48,0,0,0,.46.46.45.45,0,0,0,.32-.14A.46.46,0,0,0,21.28,33.66Z"/><circle class="b" cx="25.01" cy="25.01" r="24.51"/></svg>