<svg xmlns="http://www.w3.org/2000/svg" xmlns:xlink="http://www.w3.org/1999/xlink" viewBox="0 0 381.64 63.5"><defs><style>.a{fill:#60646b;}.b{fill:none;stroke:#bcbcbc;stroke-miterlimit:10;}.c{fill:url(#a);}.d{fill:url(#b);}.e{fill:url(#c);}.f{fill:url(#d);}.g{fill:#73b564;}</style><linearGradient id="a" x1="53.45" y1="1.21" x2="13.3" y2="41.36" gradientUnits="userSpaceOnUse"><stop offset="0" stop-color="#73b564"/><stop offset="1" stop-color="#646f6e"/></linearGradient><linearGradient id="b" x1="4.32" y1="18.41" x2="60.31" y2="18.41" gradientUnits="userSpaceOnUse"><stop offset="0.47" stop-color="#b3d78c"/><stop offset="1" stop-color="#73b564"/></linearGradient><linearGradient id="c" x1="19.18" y1="24.55" x2="60.31" y2="24.55" xlink:href="#b"/><linearGradient id="d" x1="13.38" y1="37.16" x2="23.52" y2="37.16" xlink:href="#a"/></defs><path class="a" d="M66.65,22.19c0,.27.06.55.08.84s0,.69,0,1.17v9.25H64.81V19.74h1.87l6.66,8.92,6.21-8.92h2.1V33.45h-2.1V24.2c0-.12,0-.43,0-.91s.05-.86.06-1.1l-.46.9c-.14.24-.26.43-.36.58L73.6,31.3H73l-5.45-7.42-.06-.09A5.86,5.86,0,0,1,66.65,22.19Z"/><path class="a" d="M96.33,19.74a16.17,16.17,0,0,1,3.15.25,6.25,6.25,0,0,1,2.12.81,6,6,0,0,1,2.08,2.39,7.27,7.27,0,0,1,.76,3.32,7.81,7.81,0,0,1-.75,3.46,5.78,5.78,0,0,1-2.09,2.41,5.91,5.91,0,0,1-2.1.81,16.29,16.29,0,0,1-3.17.26H88.79V19.74ZM96,21.61H91.08v9.93H96q3.33,0,4.71-1.17a4.81,4.81,0,0,0,1.37-3.86,4.55,4.55,0,0,0-1.4-3.75C99.76,22,98.2,21.61,96,21.61Z"/><path class="a" d="M107.11,33.45l7.48-13.71h2.46l7.61,13.71h-2.52l-1.75-3.37h-9.27l-1.75,3.37Zm5-5.13h7.38l-3.7-7Z"/><path class="a" d="M140.7,21.61h-9.51v9.93h9.51V28.11l2.3.47v1.63a3.64,3.64,0,0,1-.67,2.56,3.54,3.54,0,0,1-2.52.68h-7.68a3.59,3.59,0,0,1-2.54-.68,3.67,3.67,0,0,1-.68-2.56V23a3.65,3.65,0,0,1,.68-2.56,3.59,3.59,0,0,1,2.54-.68h7.68a3.54,3.54,0,0,1,2.52.67A3.67,3.67,0,0,1,143,23v1.3l-2.3.43Z"/><path class="a" d="M146.34,33.45l7.48-13.71h2.46l7.61,13.71h-2.52l-1.75-3.37h-9.27l-1.75,3.37Zm5-5.13h7.38l-3.7-7Z"/><circle class="b" cx="26.51" cy="26.51" r="26.01"/><polygon class="c" points="13.38 41.43 13.29 28.75 12.66 28.27 60.31 8.08 20.57 32.06 13.38 41.43"/><polygon class="d" points="4.32 22.16 60.31 8.08 13.29 28.75 4.32 22.16"/><polygon class="e" points="30.92 41.02 19.69 33.2 19.18 32.9 60.31 8.08 30.92 41.02"/><polygon class="f" points="13.38 41.43 19.18 32.9 23.52 35.87 13.38 41.43"/><path class="g" d="M71.1,52.8H62.51v9H71.1V58.67l2.08.43v1.47a3.35,3.35,0,0,1-.6,2.32,3.26,3.26,0,0,1-2.29.61H63.36a3.23,3.23,0,0,1-2.3-.62,3.28,3.28,0,0,1-.61-2.31V54a3.28,3.28,0,0,1,.61-2.31,3.23,3.23,0,0,1,2.3-.62h6.93a3.21,3.21,0,0,1,2.29.61,3.35,3.35,0,0,1,.6,2.32v1.17l-2.08.39Z"/><path class="g" d="M77.76,63.5V53.33h1.92V62h7.91V63.5Z"/><path class="g" d="M90.36,55.74a2.63,2.63,0,0,1,.52-1.9,2.86,2.86,0,0,1,2-.51h7.35a2.86,2.86,0,0,1,2,.51,2.63,2.63,0,0,1,.53,1.9V61.1a2.59,2.59,0,0,1-.53,1.89,2.83,2.83,0,0,1-2,.51H92.85a2.92,2.92,0,0,1-2-.5,2.67,2.67,0,0,1-.51-1.9ZM92.28,62h8.49V54.84H92.28Z"/><path class="g" d="M109.08,53.33V62h7.43V53.33h1.95V61.1a2.66,2.66,0,0,1-.52,1.9,2.93,2.93,0,0,1-2,.5h-6.3a2.87,2.87,0,0,1-2-.51,2.59,2.59,0,0,1-.52-1.89V53.33Z"/><path class="g" d="M129.81,53.33a13,13,0,0,1,2.45.19,5,5,0,0,1,1.63.59,4.48,4.48,0,0,1,1.63,1.79,5.32,5.32,0,0,1,.59,2.49,4.67,4.67,0,0,1-1.56,3.84,7.45,7.45,0,0,1-4.74,1.27H124V53.33Zm-.21,1.51h-3.72V62h3.72a5.77,5.77,0,0,0,3.53-.83,3.33,3.33,0,0,0,1.05-2.76,3.22,3.22,0,0,0-1.06-2.71A5.81,5.81,0,0,0,129.6,54.84Z"/><path class="g" d="M161.07,52.8H152.3v3.46h7.81a3.19,3.19,0,0,1,2.26.61,3.29,3.29,0,0,1,.61,2.3v1.4a3.35,3.35,0,0,1-.6,2.32,3.23,3.23,0,0,1-2.27.61h-7.23a3.23,3.23,0,0,1-2.3-.62,3.28,3.28,0,0,1-.61-2.31v-.34l1.92-.45v2h9.22V58.05h-7.78a3.19,3.19,0,0,1-2.28-.62,3.34,3.34,0,0,1-.6-2.31V54a3.34,3.34,0,0,1,.6-2.31,3.19,3.19,0,0,1,2.28-.62h6.6a3.32,3.32,0,0,1,2.28.6,2.89,2.89,0,0,1,.63,2.12v.26l-1.77.5Z"/><path class="g" d="M173.27,54.84V63.5h-1.91V54.84h-4.81V53.33h11.54v1.51Z"/><path class="g" d="M180.73,55.74a2.63,2.63,0,0,1,.53-1.9,2.86,2.86,0,0,1,2-.51h7.34a2.84,2.84,0,0,1,2,.51,2.63,2.63,0,0,1,.53,1.9V61.1a2.59,2.59,0,0,1-.52,1.89,2.87,2.87,0,0,1-2,.51h-7.34a2.9,2.9,0,0,1-2-.5,2.62,2.62,0,0,1-.52-1.9ZM182.65,62h8.5V54.84h-8.5Z"/><path class="g" d="M197.54,63.5V53.33h8.17a2.36,2.36,0,0,1,1.64.46,2,2,0,0,1,.5,1.5v2.28a2,2,0,0,1-.5,1.49,2.42,2.42,0,0,1-1.64.45h-1.34l4.49,4h-2.57l-4.06-4h-2.77v4Zm7.33-8.69h-5.41V58.1h5.41a1.25,1.25,0,0,0,.87-.22,1.12,1.12,0,0,0,.22-.82V55.85a1.14,1.14,0,0,0-.23-.8A1.19,1.19,0,0,0,204.87,54.81Z"/><path class="g" d="M211,63.5l5.89-10.17h1.75l6,10.17H222.6l-1.32-2.38h-7L213,63.5Zm4-3.85h5.41l-2.71-4.84Z"/><path class="g" d="M237.45,54.84h-8V62h8V59.2H233.3V57.81h6.07V61.1a2.59,2.59,0,0,1-.52,1.89,2.86,2.86,0,0,1-2,.51H230a2.92,2.92,0,0,1-2-.5,2.62,2.62,0,0,1-.52-1.9V55.74a2.59,2.59,0,0,1,.53-1.9,2.83,2.83,0,0,1,2-.51h6.9a2.86,2.86,0,0,1,2,.5,2.37,2.37,0,0,1,.54,1.77v.29l-1.92.33Z"/><path class="g" d="M243.63,63.5V53.33h10.24v1.51h-8.32v2.61h5V59h-5v3H254V63.5Z"/><path class="g" d="M267.4,63.5V51.11h11.93v1.67h-9.85v3.44h6v1.64h-6V61.8h9.95v1.7Z"/><path class="g" d="M281.93,63.5,287,58.29l-5.19-5h2.6L288.12,57l3.36-3.69h2.37l-4.67,4.72,5.71,5.45H292.2l-4.1-4.13-3.69,4.13Z"/><path class="g" d="M297.72,63.5V53.33h8.59a2.56,2.56,0,0,1,1.7.45,1.92,1.92,0,0,1,.53,1.51v2.28a1.89,1.89,0,0,1-.53,1.49,2.56,2.56,0,0,1-1.7.45h-6.67v4Zm7.72-8.69h-5.8V58h5.8a1.44,1.44,0,0,0,.9-.22.94.94,0,0,0,.25-.75V55.78a.94.94,0,0,0-.25-.75A1.4,1.4,0,0,0,305.44,54.81Z"/><path class="g" d="M312.26,63.5V53.33h1.92V62h7.91V63.5Z"/><path class="g" d="M324.86,55.74a2.63,2.63,0,0,1,.53-1.9,2.84,2.84,0,0,1,2-.51h7.34a2.86,2.86,0,0,1,2,.51,2.63,2.63,0,0,1,.53,1.9V61.1a2.59,2.59,0,0,1-.52,1.89,2.87,2.87,0,0,1-2,.51h-7.34a2.9,2.9,0,0,1-2-.5,2.62,2.62,0,0,1-.52-1.9ZM326.78,62h8.5V54.84h-8.5Z"/><path class="g" d="M341.66,63.5V53.33h8.18a2.36,2.36,0,0,1,1.64.46,2,2,0,0,1,.5,1.5v2.28a2,2,0,0,1-.5,1.49,2.42,2.42,0,0,1-1.64.45H348.5l4.48,4h-2.56l-4.06-4h-2.77v4ZM349,54.81h-5.41V58.1H349a1.25,1.25,0,0,0,.87-.22,1.12,1.12,0,0,0,.22-.82V55.85a1.14,1.14,0,0,0-.23-.8A1.21,1.21,0,0,0,349,54.81Z"/><path class="g" d="M356.37,63.5V53.33h10.24v1.51h-8.32v2.61h5V59h-5v3h8.42V63.5Z"/><path class="g" d="M370.32,63.5V53.33h8.18a2.35,2.35,0,0,1,1.63.46,2,2,0,0,1,.5,1.5v2.28a2,2,0,0,1-.5,1.49,2.41,2.41,0,0,1-1.63.45h-1.35l4.49,4h-2.57l-4.05-4h-2.78v4Zm7.33-8.69h-5.41V58.1h5.41a1.25,1.25,0,0,0,.87-.22,1.12,1.12,0,0,0,.22-.82V55.85a1.14,1.14,0,0,0-.23-.8A1.19,1.19,0,0,0,377.65,54.81Z"/></svg>