<svg xmlns="http://www.w3.org/2000/svg" viewBox="0 0 47.52 47.52"><defs><style>.a{fill:none;stroke:#78bb6a;stroke-miterlimit:10;}.b{fill:#78bb6a;}</style></defs><circle class="a" cx="23.76" cy="23.76" r="23.26"/><path class="b" d="M19.44,24.1a.89.89,0,1,0,.89.89A.89.89,0,0,0,19.44,24.1Zm0,1.19a.3.3,0,1,1,.3-.3A.3.3,0,0,1,19.44,25.29Z"/><path class="b" d="M27.49,29.76a.28.28,0,0,0-.27-.2H25.47l-.54-1.66a.29.29,0,0,0-.28-.2.3.3,0,0,0-.28.2l-.54,1.66H22.09a.29.29,0,0,0-.28.2.28.28,0,0,0,.11.33l1.41,1-.54,1.66a.29.29,0,0,0,.1.32.3.3,0,0,0,.35,0l1.41-1,1.41,1a.3.3,0,0,0,.37,0,.3.3,0,0,0,.09-.31L26,31.12l1.41-1A.29.29,0,0,0,27.49,29.76Zm-2,1a.3.3,0,0,0-.11.33l.33,1-.86-.62a.3.3,0,0,0-.34,0l-.85.62.32-1a.29.29,0,0,0-.1-.33L23,30.15h1.06a.3.3,0,0,0,.28-.2l.32-1L25,30a.29.29,0,0,0,.28.2h1Z"/><path class="b" d="M34.64,29.76a.29.29,0,0,0-.28-.2H32.62l-.54-1.66a.3.3,0,0,0-.56,0L31,29.56H29.24a.29.29,0,0,0-.28.2.28.28,0,0,0,.11.33l1.41,1-.54,1.66a.3.3,0,0,0,.09.32.32.32,0,0,0,.36,0l1.41-1,1.41,1a.3.3,0,0,0,.37,0,.28.28,0,0,0,.08-.31l-.54-1.66,1.42-1A.29.29,0,0,0,34.64,29.76Zm-2,1a.28.28,0,0,0-.11.33l.33,1L32,31.48a.27.27,0,0,0-.34,0l-.85.62.32-1a.28.28,0,0,0-.11-.33l-.85-.62H31.2a.28.28,0,0,0,.27-.2l.33-1,.33,1a.29.29,0,0,0,.28.2h1.05Z"/><path class="b" d="M20.35,29.76a.3.3,0,0,0-.28-.2H18.32l-.54-1.66a.29.29,0,0,0-.28-.2.3.3,0,0,0-.28.2l-.53,1.66H14.94a.29.29,0,0,0-.28.2.3.3,0,0,0,.11.33l1.41,1-.54,1.66a.29.29,0,0,0,.11.33.3.3,0,0,0,.34,0l1.41-1,1.42,1a.29.29,0,0,0,.36,0,.3.3,0,0,0,.09-.31l-.54-1.66,1.41-1A.3.3,0,0,0,20.35,29.76Zm-2,1a.3.3,0,0,0-.11.33l.33,1-.85-.62a.32.32,0,0,0-.35,0l-.85.62.32-1a.29.29,0,0,0-.1-.33l-.86-.62H16.9a.29.29,0,0,0,.28-.2l.32-1,.33,1a.29.29,0,0,0,.28.2h1.05Z"/><path class="b" d="M32.28,20.61a1.33,1.33,0,0,0-.83-2.37H26.72a5.38,5.38,0,0,0,.42-1.48,3.73,3.73,0,0,0-.44-2.84,1.58,1.58,0,0,0-1.07-.63.63.63,0,0,0-.7.6,10.71,10.71,0,0,1-.54,2.69,6.56,6.56,0,0,1-3.05,2.61,1.11,1.11,0,0,0-.71-.26H18.24A1.09,1.09,0,0,0,17.15,20v6a1.09,1.09,0,0,0,1.09,1.09h2.39a1.07,1.07,0,0,0,.81-.37,2.74,2.74,0,0,0,1.5.42h7.68a1.33,1.33,0,0,0,1-2.21A1.34,1.34,0,0,0,32,22.84a1.32,1.32,0,0,0,.25-2.23ZM20.63,26.49H18.24a.51.51,0,0,1-.5-.5V20a.51.51,0,0,1,.5-.51h2.39a.48.48,0,0,1,.36.16v6.55a.44.44,0,0,0,0,.1A.52.52,0,0,1,20.63,26.49Zm9.58-5.59h1.24a.75.75,0,0,1,.74.75.74.74,0,0,1-.74.74H30.21a.3.3,0,0,0,0,.59H31a.75.75,0,0,1,.75.74.76.76,0,0,1-.75.75H30a.29.29,0,1,0,0,.58h.63a.75.75,0,0,1,.74.75.74.74,0,0,1-.74.74H22.94a2.14,2.14,0,0,1-1.24-.36,1.23,1.23,0,0,0,0-.19V20a1.14,1.14,0,0,0,0-.33,7,7,0,0,0,3.25-2.84,12.52,12.52,0,0,0,.6-2.91v0a0,0,0,0,1,0,0s0,0,0,0a1,1,0,0,1,.67.4,3.1,3.1,0,0,1,.32,2.39A3.7,3.7,0,0,1,26,18.35a.3.3,0,0,0,.23.48h5.23a.74.74,0,0,1,.74.74.75.75,0,0,1-.74.75H30.21a.29.29,0,0,0,0,.58Z"/></svg>